Coordinates
version=1
nRows=6
nColumns=36
inDegrees=yes

Units are S.I. units (second, meters, Newtons, ...)
If the header above contains a line with 'inDegrees', this indicates whether rotational values are in degrees (yes) or radians (no).

endheader
time	pelvis_tilt	pelvis_list	pelvis_rotation	pelvis_tx	pelvis_ty	pelvis_tz	hip_flexion_r	hip_adduction_r	hip_rotation_r	knee_angle_r	knee_angle_r_beta	ankle_angle_r	subtalar_angle_r	mtp_angle_r	hip_flexion_l	hip_adduction_l	hip_rotation_l	knee_angle_l	knee_angle_l_beta	ankle_angle_l	subtalar_angle_l	mtp_angle_l	lumbar_extension	lumbar_bending	lumbar_rotation	arm_flex_r	arm_add_r	arm_rot_r	elbow_flex_r	pro_sup_r	arm_flex_l	arm_add_l	arm_rot_l	elbow_flex_l	pro_sup_l
      1.28750000	    -16.42433060	      3.71186936	      4.81300793	     -0.43796478	      1.34703206	     -0.08380261	      8.46443343	    -10.03889753	    -11.84354315	     24.80098696	      0.43285888	    -37.76021916	     -3.50302944	     -7.49999987	     28.88422637	     -3.49460177	    -14.16708951	     51.48510212	      0.89858455	    -31.05077488	    -11.10210859	     -7.49999987	     -2.70747598	     -4.18509400	     -4.56196088	    105.05326216	     -6.17984612	     11.28776031	     66.83274370	     75.35782244	     77.54453703	     -4.58964157	     33.63590170	     83.49221662	     55.83897199
      1.29166670	    -16.17135858	      3.78611361	      4.80939428	     -0.43147552	      1.35258524	     -0.08515267	      8.76163652	    -10.24489333	    -11.84417739	     25.79154057	      0.45014730	    -36.09166337	     -3.97519238	     -7.49999987	     28.93555503	     -3.47827115	    -14.31993519	     51.48040373	      0.89850255	    -30.74029889	    -11.07739697	     -7.49999987	     -2.97965389	     -4.23982110	     -4.43203328	    105.47279773	     -6.42664295	     10.90979273	     66.48815493	     75.34428421	     77.28735530	     -4.55205228	     33.86408759	     83.73353613	     56.03144486
      1.29583330	    -15.99142509	      3.84470285	      4.50972277	     -0.42603073	      1.35327639	     -0.08612602	      9.48443684	    -10.59062605	    -12.14870993	     27.39175033	      0.47807623	    -35.95293213	     -4.68450792	     -7.49999987	     29.05310488	     -3.25502215	    -14.03726523	     51.29296446	      0.89523111	    -29.89871036	    -10.61964326	     -7.49999987	     -3.27004324	     -4.27380623	     -4.08203078	    106.37722440	     -6.63511478	     10.41442296	     65.93692388	     75.30666619	     77.26790670	     -4.38382458	     34.15700896	     83.96712546	     56.20834805
      1.30000000	    -15.92662202	      3.83720676	      4.19634529	     -0.42226646	      1.35309940	     -0.08441664	     10.37730737	    -10.57909859	    -11.96029971	     28.85536411	      0.50362111	    -35.72309704	     -5.42730011	     -7.49999987	     29.42407636	     -3.48578118	    -14.11764323	     51.25548010	      0.89457689	    -29.67703160	    -10.21151706	     -7.49999987	     -3.42200903	     -4.45118773	     -3.92375289	    107.58910828	     -6.99234398	     10.26131442	     65.08663435	     75.29346833	     77.60643794	     -4.29049642	     34.48142727	     84.25521850	     56.42009245
      1.30416670	    -15.91186029	      4.01375908	      3.66541252	     -0.41391656	      1.35519120	     -0.08474124	     10.96227952	    -10.74013408	    -11.69268273	     29.98686104	      0.52336946	    -35.07248996	     -5.82239576	     -7.49999987	     29.66442267	     -3.45073194	    -14.10034917	     51.38190018	      0.89678333	    -28.21762628	     -9.51595814	     -7.49999987	     -3.23806349	     -4.69113365	     -3.58935962	    108.77727836	     -7.14381485	     10.99255744	     63.39055398	     75.33867544	     77.51686249	     -4.50808675	     35.12833643	     84.49600942	     56.86734848
      1.30833330	    -15.79264446	      4.30860871	      3.22313198	     -0.40955736	      1.35842247	     -0.08543445	     11.35244087	    -11.36201293	    -12.64753142	     31.01910941	      0.54138559	    -35.19356241	     -6.81707015	     -7.49999987	     29.91827978	     -3.34950688	    -14.04959576	     51.15744735	      0.89286589	    -27.31270329	     -9.71525388	     -7.49999987	     -3.31631678	     -4.88432419	     -3.26421916	    109.81531849	     -7.31642251	     11.31184790	     62.47813254	     75.35191625	     77.28563745	     -4.60360123	     35.37038091	     84.71222328	     57.11542541
